<?xml version="1.0" encoding="UTF-8" standalone="no"?>
<!-- Created with Inkscape (http://www.inkscape.org/) -->

<svg
   xmlns:dc="http://purl.org/dc/elements/1.1/"
   xmlns:cc="http://creativecommons.org/ns#"
   xmlns:rdf="http://www.w3.org/1999/02/22-rdf-syntax-ns#"
   xmlns:svg="http://www.w3.org/2000/svg"
   xmlns="http://www.w3.org/2000/svg"
   xmlns:sodipodi="http://sodipodi.sourceforge.net/DTD/sodipodi-0.dtd"
   xmlns:inkscape="http://www.inkscape.org/namespaces/inkscape"
   width="86.079239"
   height="45.003708"
   id="svg2"
   version="1.1"
   inkscape:version="0.48.4 r9939"
   sodipodi:docname="logo_tsis.svg">
  <defs
     id="defs4" />
  <sodipodi:namedview
     id="base"
     pagecolor="#ffffff"
     bordercolor="#666666"
     borderopacity="1.0"
     inkscape:pageopacity="0.0"
     inkscape:pageshadow="2"
     inkscape:zoom="11.2"
     inkscape:cx="36.775183"
     inkscape:cy="20.126995"
     inkscape:document-units="px"
     inkscape:current-layer="layer1"
     showgrid="false"
     inkscape:window-width="1920"
     inkscape:window-height="978"
     inkscape:window-x="0"
     inkscape:window-y="31"
     inkscape:window-maximized="1"
     fit-margin-top="0"
     fit-margin-left="0"
     fit-margin-right="0"
     fit-margin-bottom="0" />
  <metadata
     id="metadata7">
    <rdf:RDF>
      <cc:Work
         rdf:about="">
        <dc:format>image/svg+xml</dc:format>
        <dc:type
           rdf:resource="http://purl.org/dc/dcmitype/StillImage" />
        <dc:title></dc:title>
      </cc:Work>
    </rdf:RDF>
  </metadata>
  <g
     inkscape:label="Ebene 1"
     inkscape:groupmode="layer"
     id="layer1"
     transform="translate(-67.795761,-405.54392)">
    <g
       style="font-size:40px;font-style:normal;font-variant:normal;font-weight:normal;font-stretch:normal;text-align:center;line-height:125%;letter-spacing:0px;word-spacing:0px;text-anchor:middle;fill:#000000;fill-opacity:1;stroke:none;font-family:Arial;-inkscape-font-specification:Arial"
       id="text2985">
      <path
         d="m 77.229355,442.36218 0,-25.2539 -9.433594,0 0,-3.37891 22.695313,0 0,3.37891 -9.472657,0 0,25.2539 -3.789062,0"
         id="path2990"
         inkscape:connector-curvature="0" />
      <path
         d="m 104.4375,413.25 c -1.9271,3e-5 -3.67449,0.31774 -5.25,0.96875 -1.575527,0.65107 -2.773443,1.612 -3.59375,2.875 -0.820316,1.25002 -1.250003,2.58596 -1.25,4.03125 -3e-6,1.31513 0.335934,2.52606 1,3.59375 0.677079,1.05471 1.695307,1.94012 3.0625,2.65625 1.05468,0.55991 2.90104,1.14324 5.53125,1.78125 2.6302,0.62501 4.32551,1.07553 5.09375,1.375 1.1979,0.45574 2.07289,1.04167 2.59375,1.71875 0.52081,0.66407 0.78123,1.44532 0.78125,2.34375 -2e-5,0.88542 -0.26564,1.71355 -0.8125,2.46875 -0.53387,0.74219 -1.362,1.32031 -2.46875,1.75 -1.10679,0.42969 -2.39845,0.625 -3.84375,0.625 -1.62762,0 -3.07293,-0.2526 -4.375,-0.8125 -1.302092,-0.57291 -2.281257,-1.33854 -2.90625,-2.25 -0.611985,-0.92447 -0.986985,-2.09895 -1.15625,-3.53125 l -3.59375,0.3125 c 0.05208,1.91407 0.572914,3.63282 1.5625,5.15625 1.0026,1.51042 2.380202,2.65104 4.125,3.40625 1.75781,0.75521 3.9401,1.125 6.53125,1.125 2.04426,0 3.87238,-0.35156 5.5,-1.09375 1.64061,-0.7552 2.90883,-1.8151 3.78125,-3.15625 0.87237,-1.35416 1.31248,-2.78906 1.3125,-4.3125 -2e-5,-1.53645 -0.39325,-2.89062 -1.1875,-4.0625 -0.79429,-1.18489 -2.02086,-2.16926 -3.6875,-2.9375 -1.14585,-0.52082 -3.28908,-1.12238 -6.375,-1.8125 -3.07293,-0.70311 -4.958342,-1.39842 -5.6875,-2.0625 -0.742194,-0.66404 -1.125007,-1.50259 -1.125,-2.53125 -7e-6,-1.18488 0.520826,-2.19789 1.5625,-3.03125 1.05468,-0.84632 2.73957,-1.24997 5.03125,-1.25 0.10985,0 0.20534,-0.002 0.3125,0 l 0,-3.3125 c -0.15962,-0.004 -0.30615,-0.0312 -0.46875,-0.0312 z"
         id="path2992"
         inkscape:connector-curvature="0" />
      <path
         d="m 121.91685,442.36218 0,-28.63281 3.78907,0 0,28.63281 -3.78907,0"
         id="path2994"
         inkscape:connector-curvature="0" />
      <path
         d="m 142.25,413.25 c -1.9271,3e-5 -3.67449,0.31774 -5.25,0.96875 -1.57553,0.65107 -2.77344,1.612 -3.59375,2.875 -0.82032,1.25002 -1.25,2.58596 -1.25,4.03125 0,1.31513 0.33594,2.52606 1,3.59375 0.67708,1.05471 1.69531,1.94012 3.0625,2.65625 1.05468,0.55991 2.90104,1.14324 5.53125,1.78125 2.6302,0.62501 4.32551,1.07553 5.09375,1.375 1.1979,0.45574 2.07289,1.04167 2.59375,1.71875 0.52081,0.66407 0.78123,1.44532 0.78125,2.34375 -2e-5,0.88542 -0.26564,1.71355 -0.8125,2.46875 -0.53387,0.74219 -1.362,1.32031 -2.46875,1.75 -1.10679,0.42969 -2.39845,0.625 -3.84375,0.625 -0.2999,0 -0.58615,-0.0122 -0.875,-0.0312 l 0,3.40625 c 0.35031,0.0152 0.69547,0.0312 1.0625,0.0312 2.04426,0 3.87238,-0.35156 5.5,-1.09375 1.64061,-0.7552 2.90883,-1.8151 3.78125,-3.15625 0.87237,-1.35416 1.31248,-2.78906 1.3125,-4.3125 -2e-5,-1.53645 -0.39325,-2.89062 -1.1875,-4.0625 -0.79429,-1.18489 -2.02086,-2.16926 -3.6875,-2.9375 -1.14585,-0.52082 -3.28908,-1.12238 -6.375,-1.8125 -3.07293,-0.70311 -4.95835,-1.39842 -5.6875,-2.0625 -0.7422,-0.66404 -1.125,-1.50259 -1.125,-2.53125 0,-1.18488 0.52083,-2.19789 1.5625,-3.03125 1.05468,-0.84632 2.73957,-1.24997 5.03125,-1.25 2.2005,3e-5 3.84895,0.45055 4.96875,1.375 1.1328,0.9245 1.80467,2.28388 2,4.09375 L 153,421.78125 c -0.0651,-1.67967 -0.53387,-3.17185 -1.40625,-4.5 -0.87241,-1.3281 -2.12241,-2.32289 -3.75,-3 -1.6146,-0.69008 -3.47137,-1.03122 -5.59375,-1.03125 z"
         id="path2996"
         inkscape:connector-curvature="0" />
    </g>
    <path
       sodipodi:type="star"
       style="fill:#000000;fill-opacity:1;stroke:#000000;stroke-width:0.5;stroke-linecap:butt;stroke-miterlimit:4;stroke-dasharray:none"
       id="path3026"
       sodipodi:sides="3"
       sodipodi:cx="70.395004"
       sodipodi:cy="441.15677"
       sodipodi:r1="5.123631"
       sodipodi:r2="2.5618155"
       sodipodi:arg1="1.5707963"
       sodipodi:arg2="2.6179939"
       inkscape:flatsided="true"
       inkscape:rounded="0"
       inkscape:randomized="0"
       d="m 70.395004,446.2804 -4.437194,-7.68545 8.874389,0 z"
       inkscape:transform-center-y="1.2809077"
       transform="translate(8.7484133,4.0172268)" />
    <path
       transform="matrix(0,-1,1,0,-333.68395,485.43352)"
       d="m 70.395004,446.2804 -4.437194,-7.68545 8.874389,0 z"
       inkscape:randomized="0"
       inkscape:rounded="0"
       inkscape:flatsided="true"
       sodipodi:arg2="2.6179939"
       sodipodi:arg1="1.5707963"
       sodipodi:r2="2.5618155"
       sodipodi:r1="5.123631"
       sodipodi:cy="441.15677"
       sodipodi:cx="70.395004"
       sodipodi:sides="3"
       id="path3034"
       style="fill:#000000;fill-opacity:1;stroke:#000000;stroke-width:0.5;stroke-linecap:butt;stroke-miterlimit:4;stroke-dasharray:none"
       sodipodi:type="star"
       inkscape:transform-center-x="-1.2809113" />
    <path
       transform="matrix(-1,0,0,-1,194.20639,852.07432)"
       inkscape:transform-center-y="-1.2809103"
       d="m 70.395004,446.2804 -4.437194,-7.68545 8.874389,0 z"
       inkscape:randomized="0"
       inkscape:rounded="0"
       inkscape:flatsided="true"
       sodipodi:arg2="2.6179939"
       sodipodi:arg1="1.5707963"
       sodipodi:r2="2.5618155"
       sodipodi:r1="5.123631"
       sodipodi:cy="441.15677"
       sodipodi:cx="70.395004"
       sodipodi:sides="3"
       id="path3036"
       style="fill:#000000;fill-opacity:1;stroke:#000000;stroke-width:0.5;stroke-linecap:butt;stroke-miterlimit:4;stroke-dasharray:none"
       sodipodi:type="star" />
    <path
       transform="matrix(0,1,-0.99994189,0,580.79247,370.77899)"
       d="m 70.395004,446.2804 -4.437194,-7.68545 8.874389,0 z"
       inkscape:randomized="0"
       inkscape:rounded="0"
       inkscape:flatsided="true"
       sodipodi:arg2="2.6179939"
       sodipodi:arg1="1.5707963"
       sodipodi:r2="2.5618155"
       sodipodi:r1="5.123631"
       sodipodi:cy="441.15677"
       sodipodi:cx="70.395004"
       sodipodi:sides="3"
       id="path3043"
       style="fill:#000000;fill-opacity:1;stroke:#000000;stroke-width:0.50001454;stroke-linecap:butt;stroke-miterlimit:4;stroke-dasharray:none"
       sodipodi:type="star"
       inkscape:transform-center-x="1.2808257" />
  </g>
</svg>
